<svg width="0" height="0" class="hidden">
  <symbol xmlns="http://www.w3.org/2000/svg" id="arrow" viewBox="0 0 24 24">
    <path d="M18.05,17.79a1,1,0,0,0-1.42,0L13,21.42V1a1,1,0,0,0-1-1h0a1,1,0,0,0-1,1V21.41L7.38,17.79A1,1,0,1,0,6,19.2l3.92,3.92a3,3,0,0,0,4.24,0l3.92-3.92A1,1,0,0,0,18.05,17.79Z"></path>
  </symbol>
  <symbol xmlns="http://www.w3.org/2000/svg" id="sort" viewBox="0 0 24 24">
    <path d="M12.707,17.707c.391,.391,.391,1.023,0,1.414l-4.293,4.293c-.39,.39-.902,.585-1.414,.585s-1.024-.195-1.414-.585L1.293,19.121c-.391-.391-.391-1.023,0-1.414s1.023-.391,1.414,0l3.293,3.293V1c0-.553,.448-1,1-1s1,.447,1,1V21l3.293-3.293c.391-.391,1.023-.391,1.414,0ZM22.707,4.879L18.414,.586c-.779-.779-2.049-.779-2.828,0l-4.293,4.293c-.391,.391-.391,1.023,0,1.414s1.023,.391,1.414,0l3.293-3.293V23c0,.553,.447,1,1,1s1-.447,1-1V3l3.293,3.293c.195,.195,.451,.293,.707,.293s.512-.098,.707-.293c.391-.391,.391-1.023,0-1.414Z"></path>
  </symbol>
  <symbol xmlns="http://www.w3.org/2000/svg" xmlns:xlink="http://www.w3.org/1999/xlink" version="1.1" id="Учеба" x="0px" y="0px" xml:space="preserve" viewBox="0 0 512 512">
    <path d="M470.549,111.573L313.237,36.629c-34.628-20.684-77.728-21.051-112.704-0.96L41.451,111.573  c-0.597,0.299-1.216,0.619-1.792,0.96c-37.752,21.586-50.858,69.689-29.272,107.441c7.317,12.798,18.08,23.284,31.064,30.266  l43.883,20.907V375.68c0.026,46.743,30.441,88.039,75.072,101.931c31.059,8.985,63.264,13.384,95.595,13.056  c32.326,0.362,64.531-4,95.595-12.949c44.631-13.891,75.046-55.188,75.072-101.931V271.104l42.667-20.395v175.957  c0,11.782,9.551,21.333,21.333,21.333c11.782,0,21.333-9.551,21.333-21.333v-256C512.143,145.615,492.363,122.473,470.549,111.573z   M384,375.787c0.011,27.959-18.129,52.69-44.8,61.077c-27.046,7.728-55.073,11.479-83.2,11.136  c-28.127,0.343-56.154-3.408-83.2-11.136c-26.671-8.388-44.811-33.118-44.8-61.077v-84.309l70.763,33.707  c17.46,10.368,37.401,15.816,57.707,15.765c19.328,0.137,38.331-4.98,54.976-14.805L384,291.477V375.787z M452.267,211.733  l-160.896,76.8c-22.434,13.063-50.241,12.693-72.32-0.96l-157.419-74.88c-17.547-9.462-24.101-31.357-14.639-48.903  c3.2-5.934,7.998-10.853,13.85-14.201l159.893-76.373c22.441-13.034,50.233-12.665,72.32,0.96l157.312,74.944  c11.569,6.424,18.807,18.555,18.965,31.787C469.354,193.441,462.9,205.097,452.267,211.733L452.267,211.733z"></path>
  </symbol>
  <symbol xmlns="http://www.w3.org/2000/svg" id="Семья" viewBox="0 0 24 24">
    <path d="M12,16a4,4,0,1,1,4-4A4,4,0,0,1,12,16Zm0-6a2,2,0,1,0,2,2A2,2,0,0,0,12,10Zm6,13A6,6,0,0,0,6,23a1,1,0,0,0,2,0,4,4,0,0,1,8,0,1,1,0,0,0,2,0ZM18,8a4,4,0,1,1,4-4A4,4,0,0,1,18,8Zm0-6a2,2,0,1,0,2,2A2,2,0,0,0,18,2Zm6,13a6.006,6.006,0,0,0-6-6,1,1,0,0,0,0,2,4,4,0,0,1,4,4,1,1,0,0,0,2,0ZM6,8a4,4,0,1,1,4-4A4,4,0,0,1,6,8ZM6,2A2,2,0,1,0,8,4,2,2,0,0,0,6,2ZM2,15a4,4,0,0,1,4-4A1,1,0,0,0,6,9a6.006,6.006,0,0,0-6,6,1,1,0,0,0,2,0Z"></path>
  </symbol>
  <symbol xmlns="http://www.w3.org/2000/svg" id="Покупки" viewBox="0 0 24 24">
    <path d="M22.713,4.077A2.993,2.993,0,0,0,20.41,3H4.242L4.2,2.649A3,3,0,0,0,1.222,0H1A1,1,0,0,0,1,2h.222a1,1,0,0,1,.993.883l1.376,11.7A5,5,0,0,0,8.557,19H19a1,1,0,0,0,0-2H8.557a3,3,0,0,1-2.82-2h11.92a5,5,0,0,0,4.921-4.113l.785-4.354A2.994,2.994,0,0,0,22.713,4.077ZM21.4,6.178l-.786,4.354A3,3,0,0,1,17.657,13H5.419L4.478,5H20.41A1,1,0,0,1,21.4,6.178Z"></path>
    <circle cx="7" cy="22" r="2"></circle>
    <circle cx="17" cy="22" r="2"></circle>
  </symbol>
  <symbol xmlns="http://www.w3.org/2000/svg" id="Работа" viewBox="0 0 24 24">
    <path d="M19,4H17.9A5.009,5.009,0,0,0,13,0H11A5.009,5.009,0,0,0,6.1,4H5A5.006,5.006,0,0,0,0,9V19a5.006,5.006,0,0,0,5,5H19a5.006,5.006,0,0,0,5-5V9A5.006,5.006,0,0,0,19,4ZM11,2h2a3,3,0,0,1,2.816,2H8.184A3,3,0,0,1,11,2ZM5,6H19a3,3,0,0,1,3,3v3H2V9A3,3,0,0,1,5,6ZM19,22H5a3,3,0,0,1-3-3V14h9v1a1,1,0,0,0,2,0V14h9v5A3,3,0,0,1,19,22Z"></path>
  </symbol>
  <symbol xmlns="http://www.w3.org/2000/svg" id="menu" viewBox="0 0 24 24">
    <circle cx="12" cy="2" r="2"></circle>
    <circle cx="12" cy="12" r="2"></circle>
    <circle cx="12" cy="22" r="2"></circle>
  </symbol>
  <symbol xmlns="http://www.w3.org/2000/svg" id="Личные" viewBox="0 0 24 24">
    <path d="M12,12A6,6,0,1,0,6,6,6.006,6.006,0,0,0,12,12ZM12,2A4,4,0,1,1,8,6,4,4,0,0,1,12,2Z"></path>
    <path d="M12,14a9.01,9.01,0,0,0-9,9,1,1,0,0,0,2,0,7,7,0,0,1,14,0,1,1,0,0,0,2,0A9.01,9.01,0,0,0,12,14Z"></path>
  </symbol>
  <symbol xmlns="http://www.w3.org/2000/svg" id="delete" viewBox="0 0 24 24">
    <path d="M21,4H17.9A5.009,5.009,0,0,0,13,0H11A5.009,5.009,0,0,0,6.1,4H3A1,1,0,0,0,3,6H4V19a5.006,5.006,0,0,0,5,5h6a5.006,5.006,0,0,0,5-5V6h1a1,1,0,0,0,0-2ZM11,2h2a3.006,3.006,0,0,1,2.829,2H8.171A3.006,3.006,0,0,1,11,2Zm7,17a3,3,0,0,1-3,3H9a3,3,0,0,1-3-3V6H18Z"></path>
    <path d="M10,18a1,1,0,0,0,1-1V11a1,1,0,0,0-2,0v6A1,1,0,0,0,10,18Z"></path>
    <path d="M14,18a1,1,0,0,0,1-1V11a1,1,0,0,0-2,0v6A1,1,0,0,0,14,18Z"></path>
  </symbol>
  <symbol xmlns="http://www.w3.org/2000/svg" id="add" viewBox="0 0 24 24">
    <path d="M23,11H13V1a1,1,0,0,0-1-1h0a1,1,0,0,0-1,1V11H1a1,1,0,0,0-1,1H0a1,1,0,0,0,1,1H11V23a1,1,0,0,0,1,1h0a1,1,0,0,0,1-1V13H23a1,1,0,0,0,1-1h0A1,1,0,0,0,23,11Z"></path>
  </symbol>
  <symbol xmlns="http://www.w3.org/2000/svg" id="edit" viewBox="0 0 24 24">
    <path d="M22.853,1.148a3.626,3.626,0,0,0-5.124,0L1.465,17.412A4.968,4.968,0,0,0,0,20.947V23a1,1,0,0,0,1,1H3.053a4.966,4.966,0,0,0,3.535-1.464L22.853,6.271A3.626,3.626,0,0,0,22.853,1.148ZM5.174,21.122A3.022,3.022,0,0,1,3.053,22H2V20.947a2.98,2.98,0,0,1,.879-2.121L15.222,6.483l2.3,2.3ZM21.438,4.857,18.932,7.364l-2.3-2.295,2.507-2.507a1.623,1.623,0,1,1,2.295,2.3Z"></path>
  </symbol>
  <symbol xmlns="http://www.w3.org/2000/svg" id="complete" viewBox="0 0 24 24">
    <path d="M19,0H5A5.006,5.006,0,0,0,0,5V19a5.006,5.006,0,0,0,5,5H19a5.006,5.006,0,0,0,5-5V5A5.006,5.006,0,0,0,19,0Zm3,19a3,3,0,0,1-3,3H5a3,3,0,0,1-3-3V5A3,3,0,0,1,5,2H19a3,3,0,0,1,3,3Z"></path>
    <path d="M9.333,15.919,5.414,12A1,1,0,0,0,4,12H4a1,1,0,0,0,0,1.414l3.919,3.919a2,2,0,0,0,2.829,0L20,8.081a1,1,0,0,0,0-1.414h0a1,1,0,0,0-1.414,0Z"></path>
  </symbol>
</svg>
