<svg width="0" height="0" class="hidden">
  <symbol id="add" xmlns="http://www.w3.org/2000/svg" viewBox="0 0 24 24">
    <path d="m12 0a12 12 0 1 0 12 12 12.013 12.013 0 0 0 -12-12zm0 22a10 10 0 1 1 10-10 10.011 10.011 0 0 1 -10 10zm5-10a1 1 0 0 1 -1 1h-3v3a1 1 0 0 1 -2 0v-3h-3a1 1 0 0 1 0-2h3v-3a1 1 0 0 1 2 0v3h3a1 1 0 0 1 1 1z"></path>
  </symbol>
  <symbol xmlns="http://www.w3.org/2000/svg" viewBox="0 0 24 24" id="close">
    <g id="_01_align_center">
      <polygon points="15.293 7.293 12 10.586 8.707 7.293 7.293 8.707 10.586 12 7.293 15.293 8.707 16.707 12 13.414 15.293 16.707 16.707 15.293 13.414 12 16.707 8.707 15.293 7.293"></polygon>
      <path d="M12,0A12,12,0,1,0,24,12,12.013,12.013,0,0,0,12,0Zm0,22A10,10,0,1,1,22,12,10.011,10.011,0,0,1,12,22Z"></path>
    </g>
  </symbol>
  <symbol xmlns="http://www.w3.org/2000/svg" id="delete" viewBox="0 0 24 24">
    <path d="M21,4H17.9A5.009,5.009,0,0,0,13,0H11A5.009,5.009,0,0,0,6.1,4H3A1,1,0,0,0,3,6H4V19a5.006,5.006,0,0,0,5,5h6a5.006,5.006,0,0,0,5-5V6h1a1,1,0,0,0,0-2ZM11,2h2a3.006,3.006,0,0,1,2.829,2H8.171A3.006,3.006,0,0,1,11,2Zm7,17a3,3,0,0,1-3,3H9a3,3,0,0,1-3-3V6H18Z"></path>
    <path d="M10,18a1,1,0,0,0,1-1V11a1,1,0,0,0-2,0v6A1,1,0,0,0,10,18Z"></path>
    <path d="M14,18a1,1,0,0,0,1-1V11a1,1,0,0,0-2,0v6A1,1,0,0,0,14,18Z"></path>
  </symbol>
  <symbol xmlns="http://www.w3.org/2000/svg" xmlns:xlink="http://www.w3.org/1999/xlink" version="1.1" id="done" x="0px" y="0px" xml:space="preserve" viewBox="0 0 465.822 465.822">
    <g>
      <path d="M5.988,289.981l88.875,88.875c24.992,24.984,65.504,24.984,90.496,0l274.475-274.475c8.185-8.475,7.95-21.98-0.525-30.165   c-8.267-7.985-21.374-7.985-29.641,0L155.194,348.691c-8.331,8.328-21.835,8.328-30.165,0l-88.875-88.875   c-8.475-8.185-21.98-7.95-30.165,0.525C-1.996,268.608-1.996,281.714,5.988,289.981L5.988,289.981z"></path>
    </g>
  </symbol>
  <symbol xmlns="http://www.w3.org/2000/svg" id="edit" viewBox="0 0 24 24">
    <path d="M22.853,1.148a3.626,3.626,0,0,0-5.124,0L1.465,17.412A4.968,4.968,0,0,0,0,20.947V23a1,1,0,0,0,1,1H3.053a4.966,4.966,0,0,0,3.535-1.464L22.853,6.271A3.626,3.626,0,0,0,22.853,1.148ZM5.174,21.122A3.022,3.022,0,0,1,3.053,22H2V20.947a2.98,2.98,0,0,1,.879-2.121L15.222,6.483l2.3,2.3ZM21.438,4.857,18.932,7.364l-2.3-2.295,2.507-2.507a1.623,1.623,0,1,1,2.295,2.3Z"></path>
  </symbol>
</svg>