<svg width="0" height="0" class="hidden">
  <symbol version="1.0" xmlns="http://www.w3.org/2000/svg" preserveAspectRatio="xMidYMid meet" viewBox="0 0 512.000000 512.000000" id="backward">
    <g transform="translate(0.000000,512.000000) scale(0.100000,-0.100000)" stroke="none">
      <path d="M2370 5114 c-19 -2 -78 -9 -130 -15 -791 -90 -1522 -586 -1924 -1305
-146 -262 -252 -588 -297 -914 -18 -125 -18 -515 0 -640 105 -762 511 -1409
1146 -1826 840 -552 1956 -550 2797 4 1266 835 1539 2571 591 3747 -409 507
-974 829 -1633 930 -100 15 -472 28 -550 19z m545 -343 c628 -106 1158 -448
1511 -977 179 -267 296 -573 351 -909 24 -153 24 -497 0 -650 -108 -668 -474
-1222 -1042 -1580 -243 -153 -537 -261 -850 -312 -154 -24 -497 -24 -650 1
-658 107 -1197 455 -1557 1006 -168 257 -281 557 -335 885 -24 153 -24 497 0
650 81 497 291 912 636 1255 382 381 862 605 1401 654 108 10 418 -4 535 -23z"></path>
      <path d="M2318 3737 c-105 -72 -1342 -1073 -1358 -1100 -26 -42 -26 -112 0
-154 16 -27 1253 -1028 1358 -1100 49 -32 124 -32 173 1 68 47 69 50 69 465 0
204 3 371 6 371 4 0 241 -187 527 -417 287 -229 532 -422 546 -430 65 -33 155
-7 205 60 l21 28 0 1099 0 1099 -21 28 c-50 67 -140 93 -205 60 -14 -8 -259
-201 -546 -430 -286 -230 -523 -417 -527 -417 -3 0 -6 168 -6 373 0 415 0 417
-70 465 -46 31 -125 31 -172 -1z m1230 -1531 l-3 -354 -435 348 c-239 191
-435 353 -435 360 0 7 196 169 435 360 l435 348 3 -354 c1 -195 1 -513 0 -708z
m-1308 354 c0 -385 -2 -700 -5 -700 -10 0 -870 692 -870 700 0 9 855 698 868
699 4 1 7 -314 7 -699z"></path>
    </g>
  </symbol>
  <symbol version="1.0" xmlns="http://www.w3.org/2000/svg" preserveAspectRatio="xMidYMid meet" viewBox="0 0 512.000000 512.000000" id="forward">
    <g transform="translate(0.000000,512.000000) scale(0.100000,-0.100000)" stroke="none">
      <path d="M2370 5113 c-379 -36 -661 -116 -980 -278 -378 -193 -717 -497 -965
-865 -104 -156 -232 -419 -294 -605 -49 -150 -89 -321 -113 -490 -17 -118 -17
-512 0 -630 42 -295 120 -553 242 -800 137 -280 272 -468 494 -691 221 -220
412 -357 681 -489 188 -92 309 -137 500 -185 500 -126 1002 -102 1490 71 150
53 408 183 540 271 560 374 952 942 1095 1588 33 150 50 291 57 465 15 426
-73 832 -263 1214 -124 250 -263 447 -458 648 -214 222 -430 379 -711 518
-296 146 -572 225 -900 255 -102 9 -333 11 -415 3z m545 -342 c628 -106 1158
-448 1511 -977 179 -267 296 -573 351 -909 24 -153 24 -497 0 -650 -108 -668
-474 -1222 -1042 -1580 -243 -153 -537 -261 -850 -312 -154 -24 -497 -24 -650
1 -657 107 -1198 456 -1557 1006 -168 257 -281 557 -335 885 -24 153 -24 497
0 650 81 497 291 912 636 1255 382 381 862 605 1401 654 108 10 418 -4 535
-23z"></path>
      <path d="M1330 3738 c-18 -13 -43 -36 -54 -51 l-21 -28 0 -1099 0 -1099 21
-28 c50 -67 140 -93 205 -60 14 8 259 201 546 430 286 230 523 417 527 417 3
0 6 -167 6 -371 0 -415 1 -418 69 -465 49 -33 124 -33 173 -1 88 61 1339 1070
1355 1094 24 37 24 129 0 166 -16 24 -1267 1033 -1355 1094 -47 32 -126 32
-172 1 -70 -48 -70 -50 -70 -465 0 -205 -3 -373 -6 -373 -4 0 -241 187 -527
417 -287 229 -532 422 -546 430 -41 21 -113 16 -151 -9z m723 -852 c218 -175
397 -322 397 -326 0 -4 -179 -151 -397 -326 -219 -174 -417 -333 -440 -352
l-43 -34 0 712 0 712 43 -34 c23 -19 221 -178 440 -352z m1270 28 c237 -190
432 -350 432 -354 0 -8 -860 -700 -870 -700 -3 0 -5 315 -5 700 0 385 2 700 5
700 3 0 200 -156 438 -346z"></path>
    </g>
  </symbol>
  <symbol version="1.0" xmlns="http://www.w3.org/2000/svg" preserveAspectRatio="xMidYMid meet" viewBox="0 0 512.000000 512.000000" id="pause">
    <g transform="translate(0.000000,512.000000) scale(0.100000,-0.100000)" stroke="none">
      <path d="M2370 5113 c-379 -36 -661 -116 -980 -278 -378 -193 -717 -497 -965
-865 -104 -156 -232 -419 -294 -605 -49 -150 -89 -321 -113 -490 -17 -118 -17
-512 0 -630 42 -295 120 -553 242 -800 137 -280 272 -468 494 -691 221 -220
412 -357 681 -489 188 -92 309 -137 500 -185 500 -126 1002 -102 1490 71 150
53 408 183 540 271 560 374 952 942 1095 1588 33 150 50 291 57 465 15 426
-73 832 -263 1214 -124 250 -263 447 -458 648 -214 222 -430 379 -711 518
-296 146 -572 225 -900 255 -102 9 -333 11 -415 3z m545 -342 c628 -106 1158
-448 1511 -977 179 -267 296 -573 351 -909 24 -153 24 -497 0 -650 -108 -668
-474 -1222 -1042 -1580 -243 -153 -537 -261 -850 -312 -154 -24 -497 -24 -650
1 -657 107 -1198 456 -1557 1006 -168 257 -281 557 -335 885 -24 153 -24 497
0 650 81 497 291 912 636 1255 382 381 862 605 1401 654 108 10 418 -4 535
-23z"></path>
      <path d="M1425 3756 c-41 -18 -83 -69 -90 -109 -3 -18 -4 -519 -3 -1114 3
-1075 3 -1082 24 -1109 11 -15 33 -37 48 -48 27 -20 39 -21 421 -21 382 0 394
1 421 21 15 11 37 33 48 48 21 27 21 32 21 1136 0 1104 0 1109 -21 1136 -11
15 -33 37 -48 48 -26 20 -41 21 -409 23 -302 2 -388 0 -412 -11z m575 -1196
l0 -890 -175 0 -175 0 0 890 0 890 175 0 175 0 0 -890z"></path>
      <path d="M2895 3756 c-41 -18 -83 -69 -90 -109 -3 -18 -4 -519 -3 -1114 3
-1075 3 -1082 24 -1109 11 -15 33 -37 48 -48 27 -20 39 -21 421 -21 382 0 394
1 421 21 15 11 37 33 48 48 21 27 21 32 21 1136 0 1104 0 1109 -21 1136 -11
15 -33 37 -48 48 -26 20 -41 21 -409 23 -302 2 -388 0 -412 -11z m575 -1196
l0 -890 -175 0 -175 0 0 890 0 890 175 0 175 0 0 -890z"></path>
    </g>
  </symbol>
  <symbol version="1.0" xmlns="http://www.w3.org/2000/svg" preserveAspectRatio="xMidYMid meet" viewBox="0 0 512.000000 512.000000" id="play">
    <g transform="translate(0.000000,512.000000) scale(0.100000,-0.100000)" stroke="none">
      <path d="M2370 5113 c-379 -36 -661 -116 -980 -278 -378 -193 -717 -497 -965
-865 -104 -156 -232 -419 -294 -605 -49 -150 -89 -321 -113 -490 -17 -118 -17
-512 0 -630 42 -295 120 -553 242 -800 137 -280 272 -468 494 -691 221 -220
412 -357 681 -489 188 -92 309 -137 500 -185 500 -126 1002 -102 1490 71 150
53 408 183 540 271 560 374 952 942 1095 1588 33 150 50 291 57 465 15 426
-73 832 -263 1214 -124 250 -263 447 -458 648 -214 222 -430 379 -711 518
-296 146 -572 225 -900 255 -102 9 -333 11 -415 3z m545 -342 c628 -106 1158
-448 1511 -977 179 -267 296 -573 351 -909 24 -153 24 -497 0 -650 -108 -668
-474 -1222 -1042 -1580 -243 -153 -537 -261 -850 -312 -154 -24 -497 -24 -650
1 -657 107 -1198 456 -1557 1006 -168 257 -281 557 -335 885 -24 153 -24 497
0 650 81 497 291 912 636 1255 382 381 862 605 1401 654 108 10 418 -4 535
-23z"></path>
      <path d="M1792 4003 c-19 -9 -44 -32 -58 -52 l-24 -36 0 -1355 0 -1355 24 -36
c44 -65 136 -88 204 -51 59 32 1827 1324 1846 1349 41 55 33 154 -17 202 -43
42 -1815 1331 -1845 1342 -36 14 -93 10 -130 -8z m926 -958 c364 -264 661
-482 661 -485 0 -5 -1304 -955 -1335 -973 -12 -7 -14 142 -14 973 0 833 2 980
14 973 7 -4 311 -224 674 -488z"></path>
    </g>
  </symbol>
</svg>