<svg width="0" height="0" class="hidden">
  <symbol xmlns="http://www.w3.org/2000/svg" viewBox="0 0 25 10" id="beginning">
    <path d="M14.9945 4.91211L24.0277 0.214844V1.55273L16.518 5.46875L24.0277 9.375V10.7129L14.9945 6.01562V4.91211ZM0.923438 4.91211L9.95664 0.214844V1.55273L2.44688 5.46875L9.95664 9.375V10.7129L0.923438 6.01562V4.91211Z"></path>
  </symbol>
  <symbol xmlns="http://www.w3.org/2000/svg" viewBox="0 0 10 11" id="early">
    <path d="M0.958984 4.91211L9.99219 0.214844V1.55273L2.48242 5.46875L9.99219 9.375V10.7129L0.958984 6.01562V4.91211Z"></path>
  </symbol>
  <symbol xmlns="http://www.w3.org/2000/svg" viewBox="0 0 25 11" id="end">
    <path d="M10.0055 6.08789L0.972265 10.7852V9.44727L8.48203 5.53125L0.972265 1.625V0.287109L10.0055 4.98438V6.08789ZM24.0766 6.08789L15.0434 10.7852V9.44727L22.5531 5.53125L15.0434 1.625V0.287109L24.0766 4.98438V6.08789Z"></path>
  </symbol>
  <symbol xmlns="http://www.w3.org/2000/svg" viewBox="0 0 10 11" id="next">
    <path d="M9.04102 6.08789L0.0078125 10.7852V9.44727L7.51758 5.53125L0.0078125 1.625V0.287109L9.04102 4.98438V6.08789Z"></path>
  </symbol>
  <symbol xmlns="http://www.w3.org/2000/svg" viewBox="0 0 12 12" id="close">
    <path fill-rule="evenodd" clip-rule="evenodd" d="M7.42618 6.00003L11.7046 1.72158C12.0985 1.32775 12.0985 0.689213 11.7046 0.295433C11.3108 -0.0984027 10.6723 -0.0984027 10.2785 0.295433L5.99998 4.57394L1.72148 0.295377C1.32765 -0.098459 0.68917 -0.098459 0.295334 0.295377C-0.0984448 0.689213 -0.0984448 1.32775 0.295334 1.72153L4.57383 5.99997L0.295334 10.2785C-0.0984448 10.6723 -0.0984448 11.3108 0.295334 11.7046C0.68917 12.0985 1.32765 12.0985 1.72148 11.7046L5.99998 7.42612L10.2785 11.7046C10.6723 12.0985 11.3108 12.0985 11.7046 11.7046C12.0985 11.3108 12.0985 10.6723 11.7046 10.2785L7.42618 6.00003Z"></path>
  </symbol>
  <symbol xmlns="http://www.w3.org/2000/svg" viewBox="0 0 14 6" id="right">
    <path d="M0 4V2L11 2V0L14 3L11 6V4L0 4Z"></path>
  </symbol>
  <symbol xmlns="http://www.w3.org/2000/svg" viewBox="0 0 14 6" id="left">
    <path d="M14 2V4H3V6L0 3L3 0V2H14Z"></path>
  </symbol>
</svg>